<?xml version="1.0" standalone="no"?>
<!DOCTYPE svg PUBLIC "-//W3C//DTD SVG 20010904//EN"
 "http://www.w3.org/TR/2001/REC-SVG-20010904/DTD/svg10.dtd">
<svg version="1.0" xmlns="http://www.w3.org/2000/svg"
 width="101.000000pt" height="101.000000pt" viewBox="0 0 101.000000 101.000000"
 preserveAspectRatio="xMidYMid meet">
<metadata>
Created by potrace 1.14, written by Peter Selinger 2001-2017
</metadata>
<g transform="translate(0.000000,101.000000) scale(0.100000,-0.100000)"
fill="#000000" stroke="none">
<path d="M524 947 c-66 -51 -278 -186 -374 -238 -40 -22 -47 -30 -59 -78 -12
-45 -12 -54 0 -62 21 -13 58 -11 107 6 24 8 75 20 115 25 40 6 113 20 163 32
86 20 94 20 140 5 27 -8 88 -18 137 -22 91 -8 117 0 117 33 0 9 16 30 36 48
29 27 34 36 25 52 -6 11 -26 23 -45 26 -45 9 -57 43 -18 52 53 13 83 34 80 56
-6 44 -47 43 -201 -2 -78 -24 -148 -45 -156 -48 -8 -3 -2 11 14 32 30 40 36
95 13 123 -16 19 -20 18 -94 -40z"/>
<path d="M661 512 c-19 -9 -43 -29 -54 -44 -40 -54 7 -168 69 -168 40 0 92 29
127 71 40 46 47 71 34 111 -15 47 -111 64 -176 30z m119 -17 c16 -19 6 -45
-19 -45 -23 0 -35 28 -20 46 15 18 24 18 39 -1z m-41 -92 c-15 -18 -34 -1 -25
22 5 14 9 15 21 5 12 -10 13 -16 4 -27z"/>
<path d="M290 466 c-72 -22 -105 -72 -91 -138 13 -56 54 -91 96 -82 46 10 79
30 113 69 38 42 48 78 33 111 -17 39 -92 59 -151 40z m103 -38 c7 -21 -4 -38
-23 -38 -23 0 -34 16 -26 35 7 18 43 20 49 3z m-65 -71 c2 -12 -3 -17 -17 -17
-12 0 -21 6 -21 13 0 31 32 34 38 4z"/>
<path d="M453 213 c-18 -2 -33 -8 -33 -12 0 -13 42 -38 78 -45 53 -12 122 21
122 58 0 6 -114 5 -167 -1z"/>
</g>
</svg>
